# AST/ASF file generated using VICON BodyLanguage
# -----------------------------------------------
:version 1.10
:name VICON
:units
  mass 1.0
  length 0.1
  angle deg
:documentation
   .ast/.asf automatically generated from VICON data using
   VICON BodyBuilder and BodyLanguage model FULLBODY5.MOD
:root
   order TX TY TZ RZ RY RX
   axis XYZ
   position 0 0 0  
   orientation 0 -0 0 
:bonedata
  begin
     id 1 
     name lhipjoint
     direction 0.969109 -0.218487 0.11442 
     length 0.544217 
     axis 0 -0 0  XYZ
  end
  begin
     id 2 
     name lfemur
     direction 0.173648 -0.984808 0  
     length 1.81499  
     axis 0 -0 10  XYZ
    dof rx ry rz
    limits (-180.0 180.0)
           (-180.0 180.0)
           (-180.0 180.0)
  end
  begin
     id 3 
     name ltibia
     direction 0.173515 -0.984831 0   
     length 1.55296   
     axis 0 -0 10   XYZ
    dof rx ry rz
    limits (-180.0 180.0)
           (-180.0 180.0)
           (-180.0 180.0)
  end
  begin
     id 4 
     name lfoot
     direction 7.36097e-012 -0.333012 0.942922   
     length 0.509062   
     axis -90 -1.73656e-015 10   XYZ
    dof rx ry rz
    limits (-180.0 180.0)
           (-180.0 180.0)
           (-180.0 180.0)
  end
  begin
     id 5 
     name ltoes
     direction 7.7847e-012 -4.42403e-011 1   
     length 0.249732   
     axis -90 -1.73656e-015 10   XYZ
    dof rx ry rz
    limits (-180.0 180.0)
           (-180.0 180.0)
           (-180.0 180.0)
  end
  begin
     id 6 
     name rhipjoint
     direction -0.966745 -0.226554 0.118645   
     length 0.524838  
     axis 0 -0 0  XYZ 
  end
  begin
     id 7 
     name rfemur
     direction -0.173648 -0.984808 0   
     length 1.84625   
     axis 0 -0 -10   XYZ
    dof rx ry rz
    limits (-180.0 180.0)
           (-180.0 180.0)
           (-180.0 180.0)
  end
  begin
     id 8 
     name rtibia
     direction -0.173714 -0.984796 0   
     length 1.577   
     axis 0 -0 -10   XYZ
    dof rx ry rz
    limits (-180.0 180.0)
           (-180.0 180.0)
           (-180.0 180.0)
 end
 begin
     id 9 
     name rfoot
     direction -0.0183819 -0.0406144 0.999006   
     length 0.490111  
     axis -90 1.73656e-015 -10   XYZ
    dof rx ry rz
    limits (-180.0 180.0)
           (-180.0 180.0)
           (-180.0 180.0)
  end
  begin
     id 10 
     name rtoes
     direction -7.79087e-012 -4.42375e-011 1   
     length 0.245053   
     axis -90 1.73656e-015 -10   XYZ
    dof rx ry rz
    limits (-180.0 180.0)
           (-180.0 180.0)
           (-180.0 180.0)
  end
  begin
     id 11 
     name lowerback
     direction -0.0664844 0.980601 0.184393   
     length 0.458979   
     axis 0 -0 0   XYZ
    dof rx ry rz
    limits (-180.0 180.0)
           (-180.0 180.0)
           (-180.0 180.0)
  end
  begin
     id 12 
     name upperback
     direction 0.0135995 0.999573 0.02588   
     length 0.463983   
     axis 0 -0 0   XYZ
    dof rx ry rz
    limits (-180.0 180.0)
           (-180.0 180.0)
           (-180.0 180.0)
  end
  begin
     id 13 
     name thorax
     direction 0.0468402 0.997311 -0.0563691   
     length 0.482746   
     axis 0 -0 0   XYZ
    dof rx ry rz
    limits (-180.0 180.0)
           (-180.0 180.0)
           (-180.0 180.0)
  end
  begin
     id 14 
     name lowerneck
     direction -0.00174311 0.988586 -0.150647   
     length 0.364383   
     axis 0 -0 0   XYZ
    dof rx ry rz
    limits (-180.0 180.0)
           (-180.0 180.0)
           (-180.0 180.0)
  end
  begin
     id 15 
     name upperneck
     direction -0.02653 0.999379 -0.0231908   
     length 0.361006   
     axis 0 -0 0   XYZ
    dof rx ry rz
    limits (-180.0 180.0)
           (-180.0 180.0)
           (-180.0 180.0)
  end
  begin
     id 16
     name head
     direction -0.00819207 0.999941 0.00714285  
     length 0.378714  
     axis 0 -0 0   XYZ
    dof rx ry rz
    limits (-180.0 180.0)
           (-180.0 180.0)
           (-180.0 180.0)
  end
  begin
     id 17 
     name lshoulderjoint
     direction 0.981627 -0.190809 0  
     length 0.612969  
     axis 0 -0 -11   XYZ
    dof rx ry rz
    limits (-180.0 180.0)
           (-180.0 180.0)
           (-180.0 180.0)
  end
  begin
     id 18 
     name lhumerus
     direction 0.48481 -0.87462 -9.72962e-027   
     length 1.19637   
     axis -180 5.14477e-009 -151   XYZ
    dof rx ry rz
    limits (-180.0 180.0)
           (-180.0 180.0)
           (-180.0 180.0)
  end
  begin
     id 19
     name lradius
     direction 0.48481 -0.87462 -2.35761e-026   
     length 0.637735   
     axis -180 5.14477e-009 -151   XYZ
    dof rx ry rz
    limits (-180.0 180.0)
           (-180.0 180.0)
           (-180.0 180.0)
  end
  begin
     id 20
     name lwrist
     direction 0.48481 -0.87462 -5.51856e-026   
     length 0.318868   
     axis -180 5.14477e-009 -151   XYZ
    dof rx ry rz
    limits (-180.0 180.0)
           (-180.0 180.0)
           (-180.0 180.0)
  end
  begin
     id 21 
     name lhand
     direction 0.477747 -0.861928 -0.169816   
     length 0.29526   
     axis -180 5.14477e-009 -151   XYZ
    dof rx ry rz
    limits (-180.0 180.0)
           (-180.0 180.0)
           (-180.0 180.0)
  end
  begin
     id 22 
     name rshoulderjoint
     direction -0.981627 -0.190809 0   
     length 0.572347  
     axis 0 -0 11   XYZ 
    dof rx ry rz
    limits (-180.0 180.0)
           (-180.0 180.0)
           (-180.0 180.0)
  end
  begin
     id 23 
     name rhumerus
     direction -0.48481 -0.87462 1.64836e-026  
     length 1.28846   
     axis 180 5.14477e-009 151   XYZ
    dof rx ry rz
    limits (-180.0 180.0)
           (-180.0 180.0)
           (-180.0 180.0)
  end
  begin
     id 24 
     name rradius
     direction -0.48481 -0.87462 2.86827e-026   
     length 0.62107   
     axis 180 5.14477e-009 151   XYZ
    dof rx ry rz
    limits (-180.0 180.0)
           (-180.0 180.0)
           (-180.0 180.0)
  end
  begin
     id 25 
     name rwrist
     direction -0.48481 -0.87462 5.20942e-026   
     length 0.310535   
     axis 180 5.14477e-009 151   XYZ
    dof rx ry rz
    limits (-180.0 180.0)
           (-180.0 180.0)
           (-180.0 180.0)
  end
  begin
     id 26
     name rhand
     direction -0.477664 -0.861515 -0.172133   
     length 0.291321   
     axis 180 5.14477e-009 151   XYZ
    dof rx ry rz
    limits (-180.0 180.0)
           (-180.0 180.0)
           (-180.0 180.0)
  end
:hierarchy
  begin
    root lhipjoint rhipjoint lowerback 
    lhipjoint lfemur
    lfemur ltibia
    ltibia lfoot
    lfoot ltoes
    rhipjoint rfemur
    rfemur rtibia
    rtibia rfoot
    rfoot rtoes
    lowerback upperback
    upperback thorax
    thorax lowerneck lshoulderjoint rshoulderjoint
    lowerneck upperneck
    upperneck head
    lshoulderjoint lhumerus
    lhumerus lradius
    lradius lwrist
    lwrist lhand
    rshoulderjoint rhumerus
    rhumerus rradius
    rradius rwrist
    rwrist rhand
  end

:FULLY-SPECIFIED
:DEGREES
2329
root 9.23729 3.67603 -0.247222 264.802 68.8294 97.4893
lowerback -28.6897 -1.88547 -7.28823
upperback -7.82069 0.350242 0.765548
thorax 6.97564 0.468083 5.22426
lowerneck 15.2745 -3.52924 1.4958
upperneck 8.22108 -3.8139 -5.28074
head -0.0863344 -1.57852 -1.74848
rshoulderjoint -2.39685 7.29572 -29.2427
rhumerus 347.297 3.24472 -413.162
rradius 24.1409 -2.54444e-014 -1.95604e-013
rwrist 4.23059e-013 0.838476 -3.4888e-013
rhand 1.74905 -0.717447 20.5862
lshoulderjoint -2.03141 -5.857 30.1666
lhumerus 352.713 8.50304 417.774
lradius 17.9748 -1.74931e-014 -1.22849e-013
lwrist 4.84895e-013 -19.1724 -5.977e-014
lhand 9.64009 13.9245 -44.3733
rfemur -15.4987 6.4881 10.7327
rtibia 6.26101 -6.36111e-015 1.59028e-015
rfoot -170.124 -60.4644 155.728
rtoes -3.33958e-014 -7.88181e-014 8.82604e-014
lfemur -13.3804 -15.4414 -12.5793
ltibia -5.40694e-014 6.36111e-015 4.77083e-015
lfoot -7.3175 8.47315 12.3764
ltoes 9.16894e-014 -8.83132e-014 -2.14687e-014
2330
root 9.2357 3.67619 -0.245669 265.263 68.8638 97.0336
lowerback -28.5818 -1.91222 -7.34677
upperback -7.99655 0.330056 0.790867
thorax 6.72652 0.480423 5.27519
lowerneck 15.975 -3.52868 1.70301
upperneck 8.01702 -3.76881 -5.41216
head -0.273504 -1.53043 -1.8232
rshoulderjoint -2.52765 7.86523 -28.8792
rhumerus 346.896 3.05378 -412.895
rradius 24.0873 6.36111e-015 1.00983e-013
rwrist -3.65808e-013 0.886503 1.85439e-013
rhand 1.80033 -0.887541 20.6895
lshoulderjoint -2.09223 -6.06919 30.0615
lhumerus 352.28 9.64049 417.531
lradius 17.7876 1.11319e-014 7.95139e-015
lwrist -3.7577e-013 -20.0297 -1.11715e-013
lhand 9.27425 14.304 -45.3611
rfemur -15.4414 6.56758 10.7399
rtibia 6.07121 -3.33958e-014 0
rfoot -170.378 -60.6772 156.027
rtoes 1.63799e-013 1.10524e-013 -7.95139e-014
lfemur -13.3689 -15.2901 -12.5912
ltibia 3.33958e-014 -3.18055e-015 -5.56597e-015
lfoot -7.33146 8.51636 12.4105
ltoes -1.32937e-013 6.87748e-014 1.82882e-014
2331
root 9.23432 3.6765 -0.243951 265.757 68.8978 96.5312
lowerback -28.4895 -1.85077 -7.36604
upperback -8.03245 0.404252 0.806777
thorax 6.6306 0.521375 5.32634
lowerneck 16.045 -3.52479 1.74221
upperneck 7.99745 -3.75563 -5.43649
head -0.292514 -1.52052 -1.83818
rshoulderjoint -2.54944 7.97014 -28.8028
rhumerus 346.822 3.00215 -412.808
rradius 24.0129 3.24417e-013 1.65389e-013
rwrist 3.84903e-013 0.977422 2.095e-014
rhand 1.89802 -0.955407 20.7498
lshoulderjoint -2.09147 -6.07216 30.0464
lhumerus 352.165 10.274 417.436
lradius 17.6224 1.7175e-013 -1.74931e-014
lwrist 2.92195e-013 -20.5911 -2.88797e-014
lhand 8.9438 14.5414 -46.116
rfemur -15.4172 6.66456 10.7622
rtibia 5.95994 -2.22639e-014 2.38542e-015
rfoot -170.542 -60.8732 156.243
rtoes 2.06736e-014 -4.72114e-014 1.28812e-013
lfemur -13.3544 -15.1224 -12.591
ltibia 4.13472e-014 -2.8625e-014 -7.95139e-015
lfoot -7.34351 8.47258 12.4399
ltoes 8.79622e-014 4.1855e-014 -4.17448e-015
2332
root 9.23199 3.67737 -0.24155 266.318 68.9681 95.9341
lowerback -28.2859 -1.65582 -7.35697
upperback -7.92236 0.620088 0.816004
thorax 6.62612 0.614314 5.39943
lowerneck 15.4151 -3.53681 1.53653
upperneck 8.13358 -3.81894 -5.30876
head -0.139446 -1.576 -1.76272
rshoulderjoint -2.42183 7.435 -29.0997
rhumerus 347.125 3.3057 -412.975
rradius 23.943 4.77083e-014 5.00937e-014
rwrist -7.92079e-013 1.002 6.6106e-014
rhand 1.99823 -0.956167 20.7904
lshoulderjoint -2.04972 -5.92869 30.1109
lhumerus 352.389 10.5259 417.513
lradius 17.473 7.95139e-015 -4.8901e-014
lwrist -8.74809e-013 -20.872 -4.10173e-013
lhand 8.80916 14.577 -46.5978
rfemur -15.3831 6.80049 10.821
rtibia 5.8408 -2.70347e-014 0
rfoot -170.76 -61.0937 156.515
rtoes 5.88403e-014 7.02704e-014 -6.91771e-014
lfemur -13.3281 -14.9067 -12.5538
ltibia 4.92986e-014 2.70347e-014 7.55382e-015
lfoot -7.33713 8.48423 12.4728
ltoes -1.47846e-013 -1.73859e-014 2.32578e-014
2333
root 9.23052 3.67762 -0.239689 266.81 68.9928 95.4554
lowerback -28.18 -1.5633 -7.38565
upperback -7.89889 0.733205 0.812791
thorax 6.58469 0.667127 5.44702
lowerneck 15.1582 -3.54015 1.56042
upperneck 8.20064 -3.82301 -5.3355
head -0.0778482 -1.58362 -1.77813
rshoulderjoint -2.38107 7.28201 -29.1621
rhumerus 347.212 3.4007 -412.989
rradius 23.8616 1.46306e-013 2.54444e-014
rwrist 4.99434e-013 1.06828 -7.56259e-014
rhand 2.08332 -1.01488 20.8183
lshoulderjoint -2.03698 -5.8762 30.1574
lhumerus 352.369 10.7438 417.474
lradius 17.3411 7.95139e-014 1.98785e-014
lwrist 4.28585e-013 -20.7633 1.35208e-013
lhand 8.7015 14.5447 -46.9302
rfemur -15.3554 6.88774 10.8238
rtibia 5.70504 -7.95139e-016 -1.59028e-015
rfoot -170.948 -61.2969 156.763
rtoes 6.52014e-014 6.61953e-014 -7.63333e-014
lfemur -13.3224 -14.7464 -12.5661
ltibia -1.90833e-014 1.59028e-015 7.55382e-015
lfoot -7.35496 8.45047 12.4981
ltoes -1.0794e-013 6.70432e-015 3.43897e-014
2334
root 9.23047 3.67713 -0.238503 267.205 68.9832 95.0685
lowerback -28.2041 -1.50122 -7.36884
upperback -7.90182 0.811097 0.804048
thorax 6.58248 0.704892 5.4534
lowerneck 15.169 -3.53924 1.55751
upperneck 8.15559 -3.82651 -5.31464
head -0.0936636 -1.58587 -1.77026
rshoulderjoint -2.38946 7.30961 -29.158
rhumerus 347.201 3.27134 -412.96
rradius 23.7631 -2.00375e-013 -2.14687e-013
rwrist 5.34436e-013 1.12257 -2.48429e-013
rhand 2.18334 -0.985292 20.8178
lshoulderjoint -2.05688 -5.92355 30.1882
lhumerus 352.237 11.2767 417.381
lradius 17.2096 -1.27222e-013 -4.69132e-014
lwrist 5.81611e-013 -20.7528 1.9387e-013
lhand 8.64231 14.4796 -47.0864
rfemur -15.3082 6.93702 10.8242
rtibia 5.55372 -3.4191e-014 -2.38542e-015
rfoot -171.098 -61.4763 156.98
rtoes -1.27222e-014 -5.1684e-014 -2.38542e-015
lfemur -13.3128 -14.6309 -12.5812
ltibia 6.20208e-014 2.06736e-014 1.23246e-014
lfoot -7.39112 8.47469 12.5153
ltoes -6.77856e-014 -7.18498e-014 9.54166e-015
2335
root 9.22933 3.67743 -0.236607 267.679 69.0171 94.6128
lowerback -28.1134 -1.45439 -7.39967
upperback -7.9066 0.870594 0.789315
thorax 6.52428 0.734852 5.4713
lowerneck 15.163 -3.54465 1.65639
upperneck 8.08419 -3.82575 -5.3444
head -0.119307 -1.58363 -1.79699
rshoulderjoint -2.40655 7.38314 -29.1103
rhumerus 347.214 3.36872 -412.955
rradius 23.6546 4.77083e-014 8.74653e-014
rwrist -4.48547e-013 1.13733 1.27545e-013
rhand 2.19974 -1.11705 20.8873
lshoulderjoint -2.06861 -5.93411 30.258
lhumerus 352.092 12.0023 417.262
lradius 17.0642 5.24792e-014 -5.88403e-014
lwrist -4.55678e-013 -20.7238 -3.00952e-013
lhand 8.78146 14.3278 -47.0652
rfemur -15.2563 7.01593 10.8267
rtibia 5.41095 2.38542e-015 1.51076e-014
rfoot -171.288 -61.6769 157.213
rtoes 6.20208e-014 3.2054e-013 4.85035e-014
lfemur -13.2826 -14.4761 -12.5965
ltibia 5.40694e-014 -2.70347e-014 -2.14687e-014
lfoot -7.40789 8.56928 12.5287
ltoes -6.63941e-014 2.54968e-013 1.53064e-014
2336
root 9.2282 3.67771 -0.2346 268.152 69.0364 94.1503
lowerback -28.04 -1.38418 -7.41003
upperback -7.92086 0.955899 0.788355
thorax 6.46024 0.77865 5.50135
lowerneck 15.192 -3.54867 1.58953
upperneck 8.02141 -3.84696 -5.29179
head -0.141865 -1.59649 -1.76637
rshoulderjoint -2.41612 7.40537 -29.1269
rhumerus 347.214 3.27434 -412.942
rradius 23.5483 -6.36111e-014 2.54444e-014
rwrist 9.86158e-014 1.11349 1.03636e-013
rhand 2.27627 -1.05196 20.8957
lshoulderjoint -2.09946 -6.03109 30.2342
lhumerus 351.919 12.236 417.103
lradius 16.9097 -7.95139e-015 5.4467e-014
lwrist 1.83745e-013 -20.817 1.70134e-013
lhand 8.47565 14.6118 -47.1759
rfemur -15.2516 7.09767 10.8371
rtibia 5.34727 1.11319e-014 8.74653e-015
rfoot -171.352 -61.8608 157.351
rtoes 3.65764e-014 3.14676e-013 3.18055e-014
lfemur -13.2734 -14.3195 -12.5983
ltibia -4.13472e-014 -1.90833e-014 -1.23246e-014
lfoot -7.42011 8.58727 12.5375
ltoes -3.92103e-014 1.17521e-013 -3.77691e-015
2337
root 9.22732 3.6778 -0.232486 268.605 69.0319 93.7108
lowerback -28.0033 -1.3324 -7.43201
upperback -7.90927 1.02361 0.778705
thorax 6.44536 0.810176 5.52411
lowerneck 15.0876 -3.54745 1.63427
upperneck 8.01634 -3.84328 -5.30907
head -0.128224 -1.59641 -1.78096
rshoulderjoint -2.40983 7.38302 -29.1336
rhumerus 347.274 3.31902 -412.942
rradius 23.44 -2.16278e-013 -1.11319e-013
rwrist 1.52698e-013 1.15428 -3.21599e-014
rhand 2.30967 -1.12648 20.9289
lshoulderjoint -2.09513 -6.01425 30.247
lhumerus 351.808 12.9908 416.938
lradius 16.7388 -1.47896e-013 7.15625e-015
lwrist 2.21084e-013 -20.7554 1.81119e-013
lhand 8.8144 14.3905 -46.9563
rfemur -15.2929 7.17035 10.8416
rtibia 5.33872 -2.62396e-014 -7.95139e-016
rfoot -171.387 -62.0321 157.464
rtoes -9.54166e-015 -1.21954e-013 8.66701e-014
lfemur -13.2795 -14.173 -12.5967
ltibia 2.70347e-014 1.90833e-014 -4.77083e-015
lfoot -7.44445 8.64948 12.5451
ltoes 4.08006e-014 -2.29519e-014 -1.70955e-014
2338
root 9.22629 3.67807 -0.230106 268.997 69.0304 93.3499
lowerback -27.9428 -1.31466 -7.48374
upperback -7.91007 1.05368 0.773942
thorax 6.40939 0.825193 5.55643
lowerneck 15.041 -3.53488 1.63741
upperneck 7.97558 -3.83238 -5.30351
head -0.133501 -1.5929 -1.78043
rshoulderjoint -2.42788 7.42603 -29.1624
rhumerus 347.314 3.21529 -412.965
rradius 23.3334 -1.11319e-013 2.54444e-014
rwrist -9.86207e-014 1.25113 1.3113e-013
rhand 2.36772 -1.14565 20.9355
lshoulderjoint -2.08005 -5.96312 30.2698
lhumerus 351.664 13.4509 416.779
lradius 16.574 -7.95139e-014 1.94809e-014
lwrist -8.50736e-014 -20.8286 5.87008e-014
lhand 8.82973 14.4125 -46.8051
rfemur -15.3016 7.21711 10.8418
rtibia 5.27288 -3.57812e-014 -7.15625e-015
rfoot -171.459 -62.2215 157.604
rtoes -3.18055e-014 -1.01778e-013 5.56597e-015
lfemur -13.2895 -14.0512 -12.6021
ltibia -4.92986e-014 4.13472e-014 6.36111e-015
lfoot -7.45127 8.71417 12.5578
ltoes -3.65764e-014 -8.61141e-014 -2.98177e-015
2339
root 9.22547 3.67814 -0.228093 269.321 69.0472 92.9745
lowerback -27.8811 -1.2561 -7.41927
upperback -7.89587 1.10292 0.768983
thorax 6.39042 0.847684 5.52763
lowerneck 14.9516 -3.54395 1.649
upperneck 7.96557 -3.8482 -5.28789
head -0.122721 -1.60363 -1.77732
rshoulderjoint -2.4217 7.40741 -29.1614
rhumerus 347.382 3.21662 -412.971
rradius 23.2403 -9.54166e-015 -1.55847e-013
rwrist 9.44835e-013 1.20913 -3.05202e-013
rhand 2.43798 -1.10085 20.9522
lshoulderjoint -2.08949 -5.98364 30.2896
lhumerus 351.511 13.5227 416.591
lradius 16.4071 -1.74931e-014 2.18663e-014
lwrist 9.10302e-013 -20.5477 3.71084e-013
lhand 8.79793 14.4466 -46.6675
rfemur -15.2701 7.2674 10.9225
rtibia 5.17807 -2.38542e-014 -6.36111e-015
rfoot -171.511 -62.407 157.721
rtoes 1.59028e-015 -2.04947e-013 1.59028e-014
lfemur -13.2763 -13.927 -12.5384
ltibia -3.18055e-014 2.06736e-014 4.37326e-015
lfoot -7.45609 8.75979 12.5718
ltoes 7.90169e-014 -9.17422e-014 2.40529e-014
